<svg width="137" height="47" viewBox="0 0 137 47" fill="none" xmlns="http://www.w3.org/2000/svg">
<path d="M5.89844 37.3047C4.88281 37.3307 4.04948 37.1484 3.39844 36.7578C2.72135 36.3672 2.20052 35.7943 1.83594 35.0391C1.44531 34.3099 1.19792 33.4115 1.09375 32.3438C0.989583 31.3021 0.989583 30.1562 1.09375 28.9062C1.22396 27.9427 1.45833 26.9401 1.79688 25.8984C2.08333 25.013 2.52604 24.0365 3.125 22.9688C3.69792 21.901 4.47917 20.8594 5.46875 19.8438C5.67708 19.8958 5.84635 19.9609 5.97656 20.0391C6.10677 20.0911 6.21094 20.1562 6.28906 20.2344C6.36719 20.3385 6.41927 20.4297 6.44531 20.5078C6.4974 20.7943 6.41927 21.1198 6.21094 21.4844C6.0026 21.849 5.79427 22.2396 5.58594 22.6562C5.01302 23.8542 4.58333 24.987 4.29688 26.0547C4.01042 27.1224 3.82812 28.112 3.75 29.0234C3.69792 29.8047 3.71094 30.5078 3.78906 31.1328C3.84115 31.7839 3.93229 32.3307 4.0625 32.7734C4.19271 33.2422 4.33594 33.5938 4.49219 33.8281C4.64844 34.0885 4.79167 34.2188 4.92188 34.2188C5.05208 34.2188 5.18229 34.1276 5.3125 33.9453C5.46875 33.763 5.61198 33.5417 5.74219 33.2812C5.89844 33.0208 6.08073 32.6172 6.28906 32.0703C6.4974 31.5495 6.71875 30.9375 6.95312 30.2344C7.1875 29.5312 7.40885 28.776 7.61719 27.9688C7.85156 27.1354 8.0599 26.3021 8.24219 25.4688C8.60677 23.8021 8.9974 21.9271 9.41406 19.8438C9.83073 17.7344 10.4427 15.5339 11.25 13.2422C11.5104 12.2786 11.8359 11.224 12.2266 10.0781C12.5391 9.08854 12.9297 7.94271 13.3984 6.64062C13.8932 5.3125 14.4531 3.88021 15.0781 2.34375C15.0781 2.21354 15.1823 2.09635 15.3906 1.99219C15.625 1.86198 15.8854 1.73177 16.1719 1.60156C16.4844 1.47135 16.8359 1.34115 17.2266 1.21094C17.7474 1.02865 18.151 0.924479 18.4375 0.898438C18.75 0.872396 18.9844 0.911458 19.1406 1.01562C19.2969 1.11979 19.401 1.26302 19.4531 1.44531C19.5052 1.60156 19.5312 1.78385 19.5312 1.99219C19.5833 2.85156 19.6094 3.65885 19.6094 4.41406C19.6354 5.16927 19.6615 5.83333 19.6875 6.40625C19.7135 7.08333 19.7266 7.69531 19.7266 8.24219C19.7526 8.97135 19.7135 9.94792 19.6094 11.1719C19.5052 12.3698 19.388 13.6328 19.2578 14.9609C19.1536 16.2891 19.0495 17.5911 18.9453 18.8672C18.8672 20.1172 18.8542 21.1589 18.9062 21.9922C18.9062 22.4349 18.9193 22.8516 18.9453 23.2422C18.9974 23.6068 19.0495 23.9714 19.1016 24.3359C19.4401 23.3984 19.8177 22.4219 20.2344 21.4062C20.651 20.3646 21.0677 19.375 21.4844 18.4375C21.901 17.474 22.2917 16.5885 22.6562 15.7812C23.0208 14.9479 23.3073 14.2578 23.5156 13.7109C23.8281 12.9818 24.2448 12.0573 24.7656 10.9375C25.2865 9.81771 25.8073 8.69792 26.3281 7.57812C26.875 6.45833 27.3698 5.42969 27.8125 4.49219C28.2812 3.55469 28.6198 2.90365 28.8281 2.53906C28.9844 2.27865 29.2448 2.04427 29.6094 1.83594C30 1.6276 30.4036 1.44531 30.8203 1.28906C31.263 1.13281 31.6667 1.02865 32.0312 0.976562C32.4219 0.898438 32.6823 0.885417 32.8125 0.9375C33.151 1.01562 33.3854 1.11979 33.5156 1.25C33.6719 1.38021 33.763 1.47135 33.7891 1.52344C33.8411 1.6276 33.8802 1.8099 33.9062 2.07031C33.9323 2.30469 33.9193 2.68229 33.8672 3.20312C33.8151 3.82812 33.6589 4.77865 33.3984 6.05469C33.1641 7.33073 32.8646 8.78906 32.5 10.4297C32.1615 12.0443 31.7839 13.776 31.3672 15.625C30.9766 17.474 30.599 19.2969 30.2344 21.0938C29.8698 22.8646 29.5443 24.5312 29.2578 26.0938C28.9974 27.6562 28.8281 28.9714 28.75 30.0391C28.6979 31.237 28.776 32.2917 28.9844 33.2031C29.0625 33.5938 29.1797 33.9714 29.3359 34.3359C29.4922 34.7005 29.7005 35.013 29.9609 35.2734C30.2214 35.5599 30.5339 35.7682 30.8984 35.8984C31.263 36.0286 31.6927 36.0677 32.1875 36.0156C31.5365 36.4583 30.8984 36.7839 30.2734 36.9922C29.6484 37.2005 29.0365 37.3047 28.4375 37.3047C27.7865 37.3307 27.2135 37.2266 26.7188 36.9922C26.224 36.7839 25.8073 36.4714 25.4688 36.0547C25.1302 35.6641 24.8828 35.1823 24.7266 34.6094C24.5703 34.0625 24.5182 33.4505 24.5703 32.7734C24.6224 32.1484 24.7917 31.1198 25.0781 29.6875C25.3646 28.2552 25.7031 26.6406 26.0938 24.8438C26.5104 23.0208 26.9531 21.1328 27.4219 19.1797C27.9167 17.2005 28.3724 15.3516 28.7891 13.6328C29.2318 11.888 29.6094 10.3906 29.9219 9.14062C30.2344 7.89062 30.4297 7.07031 30.5078 6.67969C30.5599 6.36719 30.599 6.08073 30.625 5.82031C30.6771 5.53385 30.7292 5.28646 30.7812 5.07812C30.5208 5.59896 30.1953 6.22396 29.8047 6.95312C29.4401 7.68229 29.0495 8.46354 28.6328 9.29688C28.2161 10.1302 27.7865 11.0026 27.3438 11.9141C26.9271 12.7995 26.5234 13.6589 26.1328 14.4922C25.4818 15.8464 24.8438 17.2396 24.2188 18.6719C23.5938 20.0781 23.0339 21.4193 22.5391 22.6953C22.0443 23.9714 21.6276 25.1172 21.2891 26.1328C20.9766 27.1484 20.7943 27.9297 20.7422 28.4766V29.0234C20.7422 29.1797 20.7422 29.362 20.7422 29.5703C20.7682 29.7786 20.8073 29.974 20.8594 30.1562L19.2969 31.3672C19.0625 31.4453 18.8542 31.5104 18.6719 31.5625C18.5156 31.6146 18.3594 31.6406 18.2031 31.6406C17.6042 31.6406 17.1484 31.3281 16.8359 30.7031C16.5234 30.1302 16.237 29.0104 15.9766 27.3438C15.7161 25.6771 15.638 23.6328 15.7422 21.2109C15.7943 20.013 15.8724 18.8021 15.9766 17.5781C16.1068 16.3542 16.224 15.1823 16.3281 14.0625C16.4583 12.9427 16.5755 11.901 16.6797 10.9375C16.7839 9.94792 16.8359 9.10156 16.8359 8.39844C16.862 7.8776 16.849 7.40885 16.7969 6.99219C16.7448 6.54948 16.6927 6.14583 16.6406 5.78125C16.4062 6.38021 16.1458 7.20052 15.8594 8.24219C15.5729 9.25781 15.2734 10.3906 14.9609 11.6406C14.6484 12.8906 14.3229 14.2057 13.9844 15.5859C13.6719 16.9661 13.3594 18.2943 13.0469 19.5703C12.7604 20.8464 12.487 22.0312 12.2266 23.125C11.9661 24.1927 11.7578 25.0521 11.6016 25.7031C11.3411 26.7448 11.0807 27.9297 10.8203 29.2578C10.5599 30.5859 10.2344 31.8359 9.84375 33.0078C9.45312 34.2057 8.94531 35.2083 8.32031 36.0156C7.69531 36.849 6.88802 37.2786 5.89844 37.3047ZM44.6094 15.625C44.9479 15.3646 45.2734 15.1693 45.5859 15.0391C45.9245 14.8828 46.224 14.7786 46.4844 14.7266C46.7708 14.6484 47.0573 14.6224 47.3438 14.6484C48.0469 14.7005 48.4766 14.9219 48.6328 15.3125C48.8151 15.7031 48.8411 16.3281 48.7109 17.1875C48.6328 17.6302 48.4766 18.1901 48.2422 18.8672C48.0078 19.5443 47.7344 20.3776 47.4219 21.3672C47.1094 22.3307 46.7708 23.4375 46.4062 24.6875C46.0677 25.9375 45.7422 27.3438 45.4297 28.9062C45.1172 30.1823 44.7786 31.6536 44.4141 33.3203C44.1016 34.7786 43.724 36.5365 43.2812 38.5938C42.8646 40.651 42.4089 43.0078 41.9141 45.6641C41.7839 46.3151 41.4974 46.6927 41.0547 46.7969C40.638 46.901 40.1953 46.849 39.7266 46.6406C39.5443 46.5365 39.375 46.4193 39.2188 46.2891C39.0885 46.1589 38.9453 46.0026 38.7891 45.8203C38.6328 45.6641 38.5026 45.4427 38.3984 45.1562C38.9974 42.9688 39.5182 40.9766 39.9609 39.1797C40.4297 37.3828 40.8464 35.8203 41.2109 34.4922C41.6016 32.9557 41.9661 31.5755 42.3047 30.3516C42.4349 29.8047 42.5521 29.2708 42.6562 28.75C42.7865 28.2031 42.9167 27.6693 43.0469 27.1484C42.7083 27.6953 42.3438 28.2161 41.9531 28.7109C41.5625 29.2057 41.1328 29.6354 40.6641 30C40.1953 30.3646 39.6875 30.638 39.1406 30.8203C38.6198 31.0286 38.0729 31.0938 37.5 31.0156C36.0938 30.8333 35.0911 30.3125 34.4922 29.4531C33.9193 28.5938 33.6719 27.474 33.75 26.0938C33.776 25.5469 33.8542 24.9479 33.9844 24.2969C34.1146 23.6458 34.2578 23.0208 34.4141 22.4219C34.5703 21.8229 34.7135 21.2891 34.8438 20.8203C35 20.3255 35.1172 19.974 35.1953 19.7656C35.5078 18.776 35.7292 17.9297 35.8594 17.2266C36.0156 16.5234 35.9115 15.9375 35.5469 15.4688C35.9115 15.2344 36.25 15.0781 36.5625 15C36.901 14.8958 37.2005 14.8177 37.4609 14.7656C37.7474 14.7396 38.0339 14.7396 38.3203 14.7656C39.0234 14.8698 39.4271 15.1302 39.5312 15.5469C39.6615 15.9635 39.6224 16.5885 39.4141 17.4219C39.3099 17.8646 39.1406 18.4375 38.9062 19.1406C38.6719 19.8177 38.4245 20.5208 38.1641 21.25C37.9036 21.9792 37.6693 22.6562 37.4609 23.2812C37.2526 23.8802 37.1354 24.3099 37.1094 24.5703C36.875 25.7422 36.862 26.6536 37.0703 27.3047C37.2786 27.9297 37.7344 28.2422 38.4375 28.2422C38.776 28.2422 39.1536 28.099 39.5703 27.8125C39.987 27.5 40.4036 27.0964 40.8203 26.6016C41.263 26.1068 41.6927 25.5469 42.1094 24.9219C42.526 24.2708 42.9036 23.6198 43.2422 22.9688C43.6068 22.3177 43.9193 21.6797 44.1797 21.0547C44.4661 20.4297 44.6745 19.8698 44.8047 19.375C44.987 18.4115 45.1042 17.6562 45.1562 17.1094C45.2083 16.5625 45.026 16.0677 44.6094 15.625ZM62.6953 18.7109C61.9661 18.6849 61.0417 18.6849 59.9219 18.7109C58.8021 18.7109 57.6953 18.724 56.6016 18.75C55.8724 18.776 55.1302 18.8281 54.375 18.9062C53.724 18.9583 53.0078 19.0365 52.2266 19.1406C51.4453 19.2448 50.7031 19.401 50 19.6094C49.974 19.401 49.974 19.2057 50 19.0234C50.026 18.8151 50.0651 18.6198 50.1172 18.4375C50.1693 18.2292 50.2214 18.0339 50.2734 17.8516C50.3776 17.5911 50.5208 17.3177 50.7031 17.0312C50.9115 16.7448 51.0938 16.5625 51.25 16.4844C51.3802 16.4323 51.6406 16.3802 52.0312 16.3281C52.4479 16.276 52.9297 16.237 53.4766 16.2109C54.0495 16.1589 54.6745 16.1198 55.3516 16.0938C56.0547 16.0677 56.7448 16.0547 57.4219 16.0547C58.8021 16.0286 59.9479 16.0417 60.8594 16.0938C61.7708 16.1198 62.6432 16.1719 63.4766 16.25C63.8411 16.3021 64.0495 16.4193 64.1016 16.6016C64.1797 16.7839 64.1406 17.1094 63.9844 17.5781C63.8281 18.0208 63.6589 18.3333 63.4766 18.5156C63.2943 18.6719 63.0339 18.737 62.6953 18.7109ZM73.2812 37.6172C72.0052 37.6172 70.8594 37.2786 69.8438 36.6016C68.8281 35.9505 67.9688 35.0521 67.2656 33.9062C66.5625 32.7604 66.0417 31.4323 65.7031 29.9219C65.3906 28.4115 65.2734 26.8099 65.3516 25.1172C65.4557 23.3203 65.7292 21.4714 66.1719 19.5703C66.6146 17.6432 67.2135 15.7682 67.9688 13.9453C68.724 12.1224 69.5964 10.3906 70.5859 8.75C71.6016 7.10938 72.7083 5.67708 73.9062 4.45312C75.1302 3.22917 76.4323 2.26562 77.8125 1.5625C79.1927 0.833333 80.638 0.46875 82.1484 0.46875C83.138 0.46875 83.9714 0.716146 84.6484 1.21094C85.3255 1.70573 85.8464 2.35677 86.2109 3.16406C86.6016 3.94531 86.849 4.83073 86.9531 5.82031C87.0573 6.8099 87.0443 7.79948 86.9141 8.78906C86.8099 9.7526 86.5885 10.6901 86.25 11.6016C85.9375 12.487 85.5469 13.2161 85.0781 13.7891C84.4792 14.5443 83.9323 14.9479 83.4375 15C82.9688 15.026 82.513 14.8828 82.0703 14.5703C81.888 14.4141 81.7057 14.2318 81.5234 14.0234C81.3411 13.8411 81.1458 13.6198 80.9375 13.3594C80.7292 13.0729 80.5078 12.7214 80.2734 12.3047C80.7682 12.1224 81.224 11.8229 81.6406 11.4062C82.0573 10.9635 82.4089 10.4688 82.6953 9.92188C83.0078 9.375 83.2422 8.80208 83.3984 8.20312C83.5807 7.57812 83.6849 6.96615 83.7109 6.36719C83.737 5.89844 83.724 5.44271 83.6719 5C83.6198 4.53125 83.5156 4.1276 83.3594 3.78906C83.2031 3.42448 82.9818 3.13802 82.6953 2.92969C82.4349 2.69531 82.0964 2.57812 81.6797 2.57812C80.638 2.57812 79.6224 2.98177 78.6328 3.78906C77.6432 4.57031 76.7057 5.625 75.8203 6.95312C74.9609 8.25521 74.1536 9.7526 73.3984 11.4453C72.6693 13.138 72.0312 14.8828 71.4844 16.6797C70.9375 18.4766 70.4948 20.2474 70.1562 21.9922C69.8177 23.737 69.6094 25.3255 69.5312 26.7578C69.4271 28.5547 69.4922 30.013 69.7266 31.1328C69.9609 32.2526 70.2734 33.125 70.6641 33.75C71.0807 34.401 71.5234 34.8307 71.9922 35.0391C72.4609 35.2734 72.8906 35.3906 73.2812 35.3906C74.0104 35.3906 74.8307 35.0521 75.7422 34.375C76.6536 33.6979 77.526 32.7734 78.3594 31.6016C79.1927 30.4557 79.9349 29.1276 80.5859 27.6172C81.263 26.1068 81.7448 24.5182 82.0312 22.8516C81.3802 22.8516 80.7161 22.8646 80.0391 22.8906C79.388 22.8906 78.763 22.9036 78.1641 22.9297C77.5651 22.9557 77.0312 22.9948 76.5625 23.0469C76.0938 23.0729 75.7292 23.112 75.4688 23.1641C75.2865 23.0859 75.1562 22.9948 75.0781 22.8906C75.026 22.7865 74.974 22.6693 74.9219 22.5391C74.8698 22.4349 74.8438 22.3047 74.8438 22.1484C74.8438 21.9922 74.8698 21.849 74.9219 21.7188C74.974 21.5885 75.0391 21.4583 75.1172 21.3281C75.1953 21.1719 75.2995 21.0156 75.4297 20.8594C76.263 20.7031 77.0833 20.5729 77.8906 20.4688C78.6979 20.3646 79.5312 20.2865 80.3906 20.2344C81.276 20.1562 82.2135 20.1042 83.2031 20.0781C84.2188 20.026 85.3516 19.987 86.6016 19.9609C87.1224 19.9349 87.4349 20 87.5391 20.1562C87.6693 20.3125 87.6302 20.7031 87.4219 21.3281C87.2656 21.8229 87.0573 22.2266 86.7969 22.5391C86.5625 22.8516 86.1589 22.9818 85.5859 22.9297C85.4036 22.9297 85.2604 22.9167 85.1562 22.8906C84.9219 24.4271 84.4271 26.0547 83.6719 27.7734C82.9167 29.4922 81.9922 31.0807 80.8984 32.5391C79.8047 33.9974 78.5938 35.2083 77.2656 36.1719C75.9635 37.1354 74.6354 37.6172 73.2812 37.6172ZM97.8125 6.99219C97.7344 7.27865 97.5781 7.5651 97.3438 7.85156C97.1354 8.11198 96.888 8.33333 96.6016 8.51562C96.3411 8.67188 96.0677 8.77604 95.7812 8.82812C95.4948 8.88021 95.2604 8.82812 95.0781 8.67188C94.5312 8.25521 94.2448 7.8125 94.2188 7.34375C94.1927 6.84896 94.3099 6.39323 94.5703 5.97656C94.8307 5.53385 95.1562 5.16927 95.5469 4.88281C95.9375 4.57031 96.276 4.38802 96.5625 4.33594C96.849 4.28385 97.0833 4.34896 97.2656 4.53125C97.474 4.6875 97.6302 4.90885 97.7344 5.19531C97.8385 5.45573 97.8906 5.75521 97.8906 6.09375C97.9167 6.43229 97.8906 6.73177 97.8125 6.99219ZM92.4219 15.3125C92.5521 15.1562 92.7995 15.026 93.1641 14.9219C93.5286 14.8177 93.9062 14.7396 94.2969 14.6875C94.6875 14.6094 95.0391 14.5703 95.3516 14.5703C95.6901 14.5443 95.8854 14.5443 95.9375 14.5703C95.9635 14.5964 95.8984 14.8698 95.7422 15.3906C95.5859 15.9115 95.3906 16.5234 95.1562 17.2266C94.9219 17.9297 94.6745 18.6589 94.4141 19.4141C94.1536 20.1432 93.9583 20.7422 93.8281 21.2109C93.6979 21.6797 93.5417 22.2135 93.3594 22.8125C93.1771 23.3854 93.0078 23.9583 92.8516 24.5312C92.7214 25.0781 92.6302 25.599 92.5781 26.0938C92.526 26.5885 92.5651 26.9661 92.6953 27.2266C92.8255 27.5391 92.9688 27.7604 93.125 27.8906C93.2812 27.9948 93.4505 28.0469 93.6328 28.0469C94.1536 28.0469 94.8047 27.7604 95.5859 27.1875C96.3932 26.6146 97.2005 25.9375 98.0078 25.1562C98.8411 24.349 99.6094 23.5417 100.312 22.7344C101.016 21.901 101.536 21.237 101.875 20.7422C102.083 20.4818 102.292 20.3125 102.5 20.2344C102.734 20.1562 102.917 20.1693 103.047 20.2734C103.203 20.3776 103.281 20.5469 103.281 20.7812C103.307 21.0156 103.229 21.2891 103.047 21.6016C102.63 22.3307 102.018 23.2031 101.211 24.2188C100.404 25.2083 99.5443 26.1719 98.6328 27.1094C97.7214 28.0208 96.8229 28.8021 95.9375 29.4531C95.0781 30.1042 94.375 30.4427 93.8281 30.4688C93.3854 30.4948 92.9427 30.4167 92.5 30.2344C92.0833 30.0781 91.6927 29.8568 91.3281 29.5703C90.9896 29.2578 90.7031 28.9062 90.4688 28.5156C90.2344 28.099 90.1042 27.6693 90.0781 27.2266C90 26.5755 90 25.6901 90.0781 24.5703C90.1562 23.4245 90.2995 22.2656 90.5078 21.0938C90.7161 19.8958 90.9766 18.763 91.2891 17.6953C91.6276 16.6276 92.0052 15.8333 92.4219 15.3125ZM98.7109 29.8047C98.5286 30.0911 98.3333 30.2734 98.125 30.3516C97.8906 30.4557 97.6953 30.4688 97.5391 30.3906C97.3568 30.3385 97.2396 30.2083 97.1875 30C97.1354 29.7917 97.1875 29.5312 97.3438 29.2188C97.4219 29.0625 97.6042 28.7109 97.8906 28.1641C98.151 27.6172 98.4766 26.9661 98.8672 26.2109C99.2318 25.4297 99.6354 24.5964 100.078 23.7109C100.521 22.7995 100.938 21.9401 101.328 21.1328C101.745 20.3255 102.122 19.6094 102.461 18.9844C102.799 18.3333 103.047 17.8646 103.203 17.5781C102.917 17.3177 102.721 17.1354 102.617 17.0312C102.513 16.901 102.435 16.6406 102.383 16.25C102.331 15.9115 102.409 15.4688 102.617 14.9219C102.826 14.375 103.099 13.8542 103.438 13.3594C103.776 12.8385 104.154 12.3958 104.57 12.0312C104.987 11.6667 105.391 11.4844 105.781 11.4844C106.51 11.4844 107.018 11.7188 107.305 12.1875C107.617 12.6562 107.799 13.138 107.852 13.6328C107.904 13.9714 107.878 14.401 107.773 14.9219C107.669 15.4427 107.474 15.9115 107.188 16.3281C107.266 16.3802 107.37 16.4453 107.5 16.5234C107.63 16.5755 107.839 16.6016 108.125 16.6016C108.542 16.6016 108.828 16.5755 108.984 16.5234C109.167 16.4714 109.44 16.4453 109.805 16.4453C110.247 16.4453 110.612 16.5625 110.898 16.7969C111.185 17.0052 111.419 17.2786 111.602 17.6172C111.784 17.9297 111.914 18.2812 111.992 18.6719C112.096 19.0365 112.161 19.375 112.188 19.6875C112.266 20.3385 112.096 21.0156 111.68 21.7188C111.263 22.4219 110.755 23.1901 110.156 24.0234C109.792 24.5443 109.427 25.1302 109.062 25.7812C108.698 26.4323 108.542 27.0182 108.594 27.5391C108.646 27.8776 108.737 28.151 108.867 28.3594C108.997 28.5677 109.362 28.6719 109.961 28.6719C110.404 28.6719 110.885 28.5156 111.406 28.2031C111.953 27.8646 112.5 27.4479 113.047 26.9531C113.62 26.4323 114.18 25.8724 114.727 25.2734C115.273 24.6484 115.781 24.0495 116.25 23.4766C116.719 22.8776 117.109 22.3438 117.422 21.875C117.76 21.4062 118.008 21.0677 118.164 20.8594C118.294 20.651 118.464 20.5078 118.672 20.4297C118.88 20.3516 119.062 20.3516 119.219 20.4297C119.375 20.5078 119.466 20.6641 119.492 20.8984C119.544 21.1328 119.453 21.4453 119.219 21.8359C119.062 22.0964 118.789 22.513 118.398 23.0859C118.034 23.6589 117.578 24.2969 117.031 25C116.51 25.7031 115.924 26.4323 115.273 27.1875C114.622 27.9167 113.932 28.5938 113.203 29.2188C112.5 29.8177 111.784 30.3125 111.055 30.7031C110.352 31.0938 109.674 31.2891 109.023 31.2891C108.346 31.2891 107.786 31.1589 107.344 30.8984C106.901 30.638 106.536 30.3255 106.25 29.9609C105.99 29.5703 105.794 29.1536 105.664 28.7109C105.56 28.2422 105.521 27.8125 105.547 27.4219C105.573 27.1094 105.651 26.7839 105.781 26.4453C105.938 26.0807 106.107 25.7161 106.289 25.3516C106.497 24.9609 106.706 24.5833 106.914 24.2188C107.148 23.8281 107.357 23.4505 107.539 23.0859C107.982 22.3307 108.333 21.6927 108.594 21.1719C108.88 20.625 109.023 20.1693 109.023 19.8047C109.023 19.5703 108.971 19.362 108.867 19.1797C108.763 18.9974 108.594 18.9062 108.359 18.9062C108.203 18.9062 108.086 18.9193 108.008 18.9453C107.956 18.9453 107.891 18.9453 107.812 18.9453C107.76 18.9453 107.669 18.9583 107.539 18.9844C107.435 18.9844 107.266 18.9844 107.031 18.9844C106.693 18.9844 106.406 18.9323 106.172 18.8281C105.938 18.724 105.716 18.6458 105.508 18.5938C105.404 18.776 105.169 19.1667 104.805 19.7656C104.44 20.3646 104.01 21.0677 103.516 21.875C103.047 22.6823 102.539 23.5286 101.992 24.4141C101.471 25.2995 100.977 26.1328 100.508 26.9141C100.039 27.6693 99.6484 28.3203 99.3359 28.8672C98.9974 29.388 98.7891 29.7005 98.7109 29.8047ZM128.008 23.7891C127.747 24.7786 127.396 25.7031 126.953 26.5625C126.51 27.4219 125.977 28.1641 125.352 28.7891C124.753 29.4141 124.062 29.8958 123.281 30.2344C122.526 30.599 121.693 30.7812 120.781 30.7812C119.714 30.7812 118.867 30.5469 118.242 30.0781C117.643 29.6354 117.188 29.0755 116.875 28.3984C116.589 27.7214 116.419 26.9792 116.367 26.1719C116.289 25.3646 116.25 24.6094 116.25 23.9062C116.25 23.4115 116.315 22.8646 116.445 22.2656C116.549 21.6667 116.706 21.0547 116.914 20.4297C117.122 19.8047 117.383 19.1797 117.695 18.5547C118.034 17.9297 118.424 17.3568 118.867 16.8359C119.023 16.3932 119.258 16.0026 119.57 15.6641C119.909 15.3255 120.286 15.0521 120.703 14.8438C121.146 14.6094 121.615 14.4401 122.109 14.3359C122.604 14.2057 123.086 14.1406 123.555 14.1406C123.633 14.1406 123.698 14.1536 123.75 14.1797C123.828 14.2057 123.906 14.2318 123.984 14.2578C124.323 14.2839 124.74 14.4141 125.234 14.6484C125.755 14.8828 126.25 15.2344 126.719 15.7031C127.214 16.1719 127.63 16.7708 127.969 17.5C128.307 18.2031 128.477 19.0625 128.477 20.0781C128.477 20.2865 128.464 20.5469 128.438 20.8594C128.411 21.1458 128.385 21.3932 128.359 21.6016C128.958 21.3672 129.583 21.0807 130.234 20.7422C130.885 20.4036 131.51 20.0521 132.109 19.6875C132.734 19.2969 133.307 18.9062 133.828 18.5156C134.349 18.125 134.766 17.7734 135.078 17.4609C135.339 17.2266 135.56 17.0964 135.742 17.0703C135.924 17.0443 136.055 17.0964 136.133 17.2266C136.211 17.3568 136.224 17.5391 136.172 17.7734C136.12 18.0078 135.977 18.2682 135.742 18.5547C135.612 18.7109 135.273 19.0234 134.727 19.4922C134.206 19.9609 133.581 20.4688 132.852 21.0156C132.122 21.5625 131.328 22.0964 130.469 22.6172C129.609 23.138 128.789 23.5286 128.008 23.7891ZM121.406 17.8516C121.328 18.0859 121.289 18.3333 121.289 18.5938C121.289 19.0104 121.315 19.4531 121.367 19.9219C121.419 20.3646 121.549 20.7682 121.758 21.1328C121.966 21.4974 122.292 21.8099 122.734 22.0703C123.203 22.3047 123.841 22.4219 124.648 22.4219C124.779 22.4219 124.909 22.4219 125.039 22.4219C125.169 22.3958 125.299 22.3698 125.43 22.3438C125.508 22.0052 125.573 21.7057 125.625 21.4453C125.703 21.1589 125.742 20.9115 125.742 20.7031C125.794 20.2083 125.794 19.7005 125.742 19.1797C125.69 18.6589 125.586 18.1901 125.43 17.7734C125.299 17.3307 125.117 16.9792 124.883 16.7188C124.674 16.4323 124.414 16.2891 124.102 16.2891C123.607 16.2891 123.125 16.4323 122.656 16.7188C122.214 16.9792 121.797 17.3568 121.406 17.8516ZM118.906 24.7266C118.906 25.1953 118.932 25.6641 118.984 26.1328C119.036 26.5755 119.141 26.9792 119.297 27.3438C119.453 27.6823 119.661 27.9688 119.922 28.2031C120.182 28.4115 120.521 28.5156 120.938 28.5156C121.406 28.5156 121.836 28.4115 122.227 28.2031C122.617 27.9688 122.969 27.6823 123.281 27.3438C123.594 26.9792 123.867 26.5755 124.102 26.1328C124.362 25.6641 124.583 25.1823 124.766 24.6875C124.583 24.7135 124.401 24.7396 124.219 24.7656C124.062 24.7656 123.88 24.7656 123.672 24.7656C122.682 24.7656 121.823 24.4792 121.094 23.9062C120.391 23.3073 119.844 22.5521 119.453 21.6406C119.297 22.1875 119.167 22.7214 119.062 23.2422C118.958 23.763 118.906 24.2578 118.906 24.7266Z" fill="black"/>
</svg>
