<svg width="325" height="112" viewBox="0 0 325 112" fill="none" xmlns="http://www.w3.org/2000/svg">
<path d="M12.1562 88.5312C9.71875 88.5938 7.71875 88.1562 6.15625 87.2188C4.53125 86.2812 3.28125 84.9062 2.40625 83.0938C1.46875 81.3438 0.875 79.1875 0.625 76.625C0.375 74.125 0.375 71.375 0.625 68.375C0.9375 66.0625 1.5 63.6562 2.3125 61.1562C3 59.0312 4.0625 56.6875 5.5 54.125C6.875 51.5625 8.75 49.0625 11.125 46.625C11.625 46.75 12.0312 46.9062 12.3438 47.0938C12.6562 47.2188 12.9062 47.375 13.0938 47.5625C13.2812 47.8125 13.4062 48.0312 13.4688 48.2188C13.5938 48.9062 13.4062 49.6875 12.9062 50.5625C12.4062 51.4375 11.9062 52.375 11.4062 53.375C10.0312 56.25 9 58.9688 8.3125 61.5312C7.625 64.0938 7.1875 66.4688 7 68.6562C6.875 70.5312 6.90625 72.2188 7.09375 73.7188C7.21875 75.2812 7.4375 76.5938 7.75 77.6562C8.0625 78.7812 8.40625 79.625 8.78125 80.1875C9.15625 80.8125 9.5 81.125 9.8125 81.125C10.125 81.125 10.4375 80.9062 10.75 80.4688C11.125 80.0312 11.4688 79.5 11.7812 78.875C12.1562 78.25 12.5938 77.2812 13.0938 75.9688C13.5938 74.7188 14.125 73.25 14.6875 71.5625C15.25 69.875 15.7812 68.0625 16.2812 66.125C16.8438 64.125 17.3438 62.125 17.7812 60.125C18.6562 56.125 19.5938 51.625 20.5938 46.625C21.5938 41.5625 23.0625 36.2812 25 30.7812C25.625 28.4688 26.4062 25.9375 27.3438 23.1875C28.0938 20.8125 29.0312 18.0625 30.1562 14.9375C31.3438 11.75 32.6875 8.3125 34.1875 4.625C34.1875 4.3125 34.4375 4.03125 34.9375 3.78125C35.5 3.46875 36.125 3.15625 36.8125 2.84375C37.5625 2.53125 38.4062 2.21875 39.3438 1.90625C40.5938 1.46875 41.5625 1.21875 42.25 1.15625C43 1.09375 43.5625 1.1875 43.9375 1.4375C44.3125 1.6875 44.5625 2.03125 44.6875 2.46875C44.8125 2.84375 44.875 3.28125 44.875 3.78125C45 5.84375 45.0625 7.78125 45.0625 9.59375C45.125 11.4063 45.1875 13 45.25 14.375C45.3125 16 45.3438 17.4688 45.3438 18.7812C45.4062 20.5312 45.3125 22.875 45.0625 25.8125C44.8125 28.6875 44.5312 31.7188 44.2188 34.9062C43.9688 38.0938 43.7188 41.2188 43.4688 44.2812C43.2812 47.2812 43.25 49.7812 43.375 51.7812C43.375 52.8438 43.4062 53.8438 43.4688 54.7812C43.5938 55.6562 43.7188 56.5312 43.8438 57.4062C44.6562 55.1562 45.5625 52.8125 46.5625 50.375C47.5625 47.875 48.5625 45.5 49.5625 43.25C50.5625 40.9375 51.5 38.8125 52.375 36.875C53.25 34.875 53.9375 33.2188 54.4375 31.9062C55.1875 30.1562 56.1875 27.9375 57.4375 25.25C58.6875 22.5625 59.9375 19.875 61.1875 17.1875C62.5 14.5 63.6875 12.0312 64.75 9.78125C65.875 7.53125 66.6875 5.96875 67.1875 5.09375C67.5625 4.46875 68.1875 3.90625 69.0625 3.40625C70 2.90625 70.9688 2.46875 71.9688 2.09375C73.0312 1.71875 74 1.46875 74.875 1.34375C75.8125 1.15625 76.4375 1.125 76.75 1.25C77.5625 1.4375 78.125 1.6875 78.4375 2C78.8125 2.3125 79.0312 2.53125 79.0938 2.65625C79.2188 2.90625 79.3125 3.34375 79.375 3.96875C79.4375 4.53125 79.4062 5.4375 79.2812 6.6875C79.1562 8.1875 78.7812 10.4688 78.1562 13.5312C77.5938 16.5938 76.875 20.0938 76 24.0312C75.1875 27.9062 74.2812 32.0625 73.2812 36.5C72.3438 40.9375 71.4375 45.3125 70.5625 49.625C69.6875 53.875 68.9062 57.875 68.2188 61.625C67.5938 65.375 67.1875 68.5312 67 71.0938C66.875 73.9688 67.0625 76.5 67.5625 78.6875C67.75 79.625 68.0312 80.5312 68.4062 81.4062C68.7812 82.2812 69.2812 83.0312 69.9062 83.6562C70.5312 84.3438 71.2812 84.8438 72.1562 85.1562C73.0312 85.4688 74.0625 85.5625 75.25 85.4375C73.6875 86.5 72.1562 87.2812 70.6562 87.7812C69.1562 88.2812 67.6875 88.5312 66.25 88.5312C64.6875 88.5938 63.3125 88.3438 62.125 87.7812C60.9375 87.2812 59.9375 86.5312 59.125 85.5312C58.3125 84.5938 57.7188 83.4375 57.3438 82.0625C56.9688 80.75 56.8438 79.2812 56.9688 77.6562C57.0938 76.1562 57.5 73.6875 58.1875 70.25C58.875 66.8125 59.6875 62.9375 60.625 58.625C61.625 54.25 62.6875 49.7188 63.8125 45.0312C65 40.2812 66.0938 35.8438 67.0938 31.7188C68.1562 27.5312 69.0625 23.9375 69.8125 20.9375C70.5625 17.9375 71.0312 15.9688 71.2188 15.0312C71.3438 14.2812 71.4375 13.5938 71.5 12.9688C71.625 12.2812 71.75 11.6875 71.875 11.1875C71.25 12.4375 70.4688 13.9375 69.5312 15.6875C68.6562 17.4375 67.7188 19.3125 66.7188 21.3125C65.7188 23.3125 64.6875 25.4062 63.625 27.5938C62.625 29.7188 61.6562 31.7812 60.7188 33.7812C59.1562 37.0312 57.625 40.375 56.125 43.8125C54.625 47.1875 53.2812 50.4062 52.0938 53.4688C50.9062 56.5312 49.9062 59.2812 49.0938 61.7188C48.3438 64.1562 47.9062 66.0312 47.7812 67.3438V68.6562C47.7812 69.0312 47.7812 69.4688 47.7812 69.9688C47.8438 70.4688 47.9375 70.9375 48.0625 71.375L44.3125 74.2812C43.75 74.4688 43.25 74.625 42.8125 74.75C42.4375 74.875 42.0625 74.9375 41.6875 74.9375C40.25 74.9375 39.1562 74.1875 38.4062 72.6875C37.6562 71.3125 36.9688 68.625 36.3438 64.625C35.7188 60.625 35.5312 55.7188 35.7812 49.9062C35.9062 47.0312 36.0938 44.125 36.3438 41.1875C36.6562 38.25 36.9375 35.4375 37.1875 32.75C37.5 30.0625 37.7812 27.5625 38.0312 25.25C38.2812 22.875 38.4062 20.8438 38.4062 19.1562C38.4688 17.9062 38.4375 16.7812 38.3125 15.7812C38.1875 14.7188 38.0625 13.75 37.9375 12.875C37.375 14.3125 36.75 16.2812 36.0625 18.7812C35.375 21.2188 34.6562 23.9375 33.9062 26.9375C33.1562 29.9375 32.375 33.0938 31.5625 36.4062C30.8125 39.7188 30.0625 42.9062 29.3125 45.9688C28.625 49.0312 27.9688 51.875 27.3438 54.5C26.7188 57.0625 26.2188 59.125 25.8438 60.6875C25.2188 63.1875 24.5938 66.0312 23.9688 69.2188C23.3438 72.4062 22.5625 75.4062 21.625 78.2188C20.6875 81.0938 19.4688 83.5 17.9688 85.4375C16.4688 87.4375 14.5312 88.4688 12.1562 88.5312ZM105.062 36.5C105.875 35.875 106.656 35.4062 107.406 35.0938C108.219 34.7188 108.938 34.4688 109.562 34.3438C110.25 34.1562 110.938 34.0938 111.625 34.1562C113.312 34.2812 114.344 34.8125 114.719 35.75C115.156 36.6875 115.219 38.1875 114.906 40.25C114.719 41.3125 114.344 42.6562 113.781 44.2812C113.219 45.9062 112.562 47.9062 111.812 50.2812C111.062 52.5938 110.25 55.25 109.375 58.25C108.562 61.25 107.781 64.625 107.031 68.375C106.281 71.4375 105.469 74.9688 104.594 78.9688C103.844 82.4688 102.938 86.6875 101.875 91.625C100.875 96.5625 99.7812 102.219 98.5938 108.594C98.2812 110.156 97.5938 111.062 96.5312 111.312C95.5312 111.562 94.4688 111.438 93.3438 110.938C92.9062 110.688 92.5 110.406 92.125 110.094C91.8125 109.781 91.4688 109.406 91.0938 108.969C90.7188 108.594 90.4062 108.062 90.1562 107.375C91.5938 102.125 92.8438 97.3438 93.9062 93.0312C95.0312 88.7188 96.0312 84.9688 96.9062 81.7812C97.8438 78.0938 98.7188 74.7812 99.5312 71.8438C99.8438 70.5312 100.125 69.25 100.375 68C100.688 66.6875 101 65.4062 101.312 64.1562C100.5 65.4688 99.625 66.7188 98.6875 67.9062C97.75 69.0938 96.7188 70.125 95.5938 71C94.4688 71.875 93.25 72.5312 91.9375 72.9688C90.6875 73.4688 89.375 73.625 88 73.4375C84.625 73 82.2188 71.75 80.7812 69.6875C79.4062 67.625 78.8125 64.9375 79 61.625C79.0625 60.3125 79.25 58.875 79.5625 57.3125C79.875 55.75 80.2188 54.25 80.5938 52.8125C80.9688 51.375 81.3125 50.0938 81.625 48.9688C82 47.7812 82.2812 46.9375 82.4688 46.4375C83.2188 44.0625 83.75 42.0312 84.0625 40.3438C84.4375 38.6562 84.1875 37.25 83.3125 36.125C84.1875 35.5625 85 35.1875 85.75 35C86.5625 34.75 87.2812 34.5625 87.9062 34.4375C88.5938 34.375 89.2812 34.375 89.9688 34.4375C91.6562 34.6875 92.625 35.3125 92.875 36.3125C93.1875 37.3125 93.0938 38.8125 92.5938 40.8125C92.3438 41.875 91.9375 43.25 91.375 44.9375C90.8125 46.5625 90.2188 48.25 89.5938 50C88.9688 51.75 88.4062 53.375 87.9062 54.875C87.4062 56.3125 87.125 57.3438 87.0625 57.9688C86.5 60.7812 86.4688 62.9688 86.9688 64.5312C87.4688 66.0312 88.5625 66.7812 90.25 66.7812C91.0625 66.7812 91.9688 66.4375 92.9688 65.75C93.9688 65 94.9688 64.0312 95.9688 62.8438C97.0312 61.6562 98.0625 60.3125 99.0625 58.8125C100.062 57.25 100.969 55.6875 101.781 54.125C102.656 52.5625 103.406 51.0312 104.031 49.5312C104.719 48.0312 105.219 46.6875 105.531 45.5C105.969 43.1875 106.25 41.375 106.375 40.0625C106.5 38.75 106.062 37.5625 105.062 36.5ZM148.469 43.9062C146.719 43.8438 144.5 43.8438 141.812 43.9062C139.125 43.9062 136.469 43.9375 133.844 44C132.094 44.0625 130.312 44.1875 128.5 44.375C126.938 44.5 125.219 44.6875 123.344 44.9375C121.469 45.1875 119.688 45.5625 118 46.0625C117.938 45.5625 117.938 45.0938 118 44.6562C118.062 44.1562 118.156 43.6875 118.281 43.25C118.406 42.75 118.531 42.2812 118.656 41.8438C118.906 41.2188 119.25 40.5625 119.688 39.875C120.188 39.1875 120.625 38.75 121 38.5625C121.312 38.4375 121.938 38.3125 122.875 38.1875C123.875 38.0625 125.031 37.9688 126.344 37.9062C127.719 37.7812 129.219 37.6875 130.844 37.625C132.531 37.5625 134.188 37.5312 135.812 37.5312C139.125 37.4688 141.875 37.5 144.062 37.625C146.25 37.6875 148.344 37.8125 150.344 38C151.219 38.125 151.719 38.4062 151.844 38.8438C152.031 39.2812 151.938 40.0625 151.562 41.1875C151.188 42.25 150.781 43 150.344 43.4375C149.906 43.8125 149.281 43.9688 148.469 43.9062ZM173.875 89.2812C170.812 89.2812 168.062 88.4688 165.625 86.8438C163.188 85.2812 161.125 83.125 159.438 80.375C157.75 77.625 156.5 74.4375 155.688 70.8125C154.938 67.1875 154.656 63.3438 154.844 59.2812C155.094 54.9688 155.75 50.5312 156.812 45.9688C157.875 41.3438 159.312 36.8438 161.125 32.4688C162.938 28.0938 165.031 23.9375 167.406 20C169.844 16.0625 172.5 12.625 175.375 9.6875C178.312 6.75 181.438 4.4375 184.75 2.75C188.062 1 191.531 0.125 195.156 0.125C197.531 0.125 199.531 0.71875 201.156 1.90625C202.781 3.09375 204.031 4.65625 204.906 6.59375C205.844 8.46875 206.438 10.5937 206.688 12.9688C206.938 15.3438 206.906 17.7188 206.594 20.0938C206.344 22.4062 205.812 24.6562 205 26.8438C204.25 28.9688 203.312 30.7188 202.188 32.0938C200.75 33.9062 199.438 34.875 198.25 35C197.125 35.0625 196.031 34.7188 194.969 33.9688C194.531 33.5938 194.094 33.1562 193.656 32.6562C193.219 32.2188 192.75 31.6875 192.25 31.0625C191.75 30.375 191.219 29.5312 190.656 28.5312C191.844 28.0938 192.938 27.375 193.938 26.375C194.938 25.3125 195.781 24.125 196.469 22.8125C197.219 21.5 197.781 20.125 198.156 18.6875C198.594 17.1875 198.844 15.7188 198.906 14.2812C198.969 13.1562 198.938 12.0625 198.812 11C198.688 9.875 198.438 8.90625 198.062 8.09375C197.688 7.21875 197.156 6.53125 196.469 6.03125C195.844 5.46875 195.031 5.1875 194.031 5.1875C191.531 5.1875 189.094 6.15625 186.719 8.09375C184.344 9.96875 182.094 12.5 179.969 15.6875C177.906 18.8125 175.969 22.4062 174.156 26.4688C172.406 30.5312 170.875 34.7188 169.562 39.0312C168.25 43.3438 167.188 47.5938 166.375 51.7812C165.562 55.9688 165.062 59.7812 164.875 63.2188C164.625 67.5312 164.781 71.0312 165.344 73.7188C165.906 76.4062 166.656 78.5 167.594 80C168.594 81.5625 169.656 82.5938 170.781 83.0938C171.906 83.6562 172.938 83.9375 173.875 83.9375C175.625 83.9375 177.594 83.125 179.781 81.5C181.969 79.875 184.062 77.6562 186.062 74.8438C188.062 72.0938 189.844 68.9062 191.406 65.2812C193.031 61.6562 194.188 57.8438 194.875 53.8438C193.312 53.8438 191.719 53.875 190.094 53.9375C188.531 53.9375 187.031 53.9688 185.594 54.0312C184.156 54.0938 182.875 54.1875 181.75 54.3125C180.625 54.375 179.75 54.4688 179.125 54.5938C178.688 54.4062 178.375 54.1875 178.188 53.9375C178.062 53.6875 177.938 53.4062 177.812 53.0938C177.688 52.8438 177.625 52.5312 177.625 52.1562C177.625 51.7812 177.688 51.4375 177.812 51.125C177.938 50.8125 178.094 50.5 178.281 50.1875C178.469 49.8125 178.719 49.4375 179.031 49.0625C181.031 48.6875 183 48.375 184.938 48.125C186.875 47.875 188.875 47.6875 190.938 47.5625C193.062 47.375 195.312 47.25 197.688 47.1875C200.125 47.0625 202.844 46.9688 205.844 46.9062C207.094 46.8438 207.844 47 208.094 47.375C208.406 47.75 208.312 48.6875 207.812 50.1875C207.438 51.375 206.938 52.3438 206.312 53.0938C205.75 53.8438 204.781 54.1562 203.406 54.0312C202.969 54.0312 202.625 54 202.375 53.9375C201.812 57.625 200.625 61.5312 198.812 65.6562C197 69.7812 194.781 73.5938 192.156 77.0938C189.531 80.5938 186.625 83.5 183.438 85.8125C180.312 88.125 177.125 89.2812 173.875 89.2812ZM232.75 15.7812C232.562 16.4688 232.188 17.1562 231.625 17.8438C231.125 18.4688 230.531 19 229.844 19.4375C229.219 19.8125 228.562 20.0625 227.875 20.1875C227.188 20.3125 226.625 20.1875 226.188 19.8125C224.875 18.8125 224.188 17.75 224.125 16.625C224.062 15.4375 224.344 14.3438 224.969 13.3438C225.594 12.2812 226.375 11.4063 227.312 10.7188C228.25 9.96875 229.062 9.53125 229.75 9.40625C230.438 9.28125 231 9.4375 231.438 9.875C231.938 10.25 232.312 10.7812 232.562 11.4688C232.812 12.0937 232.938 12.8125 232.938 13.625C233 14.4375 232.938 15.1562 232.75 15.7812ZM219.812 35.75C220.125 35.375 220.719 35.0625 221.594 34.8125C222.469 34.5625 223.375 34.375 224.312 34.25C225.25 34.0625 226.094 33.9688 226.844 33.9688C227.656 33.9062 228.125 33.9062 228.25 33.9688C228.312 34.0312 228.156 34.6875 227.781 35.9375C227.406 37.1875 226.938 38.6562 226.375 40.3438C225.812 42.0312 225.219 43.7812 224.594 45.5938C223.969 47.3438 223.5 48.7812 223.188 49.9062C222.875 51.0312 222.5 52.3125 222.062 53.75C221.625 55.125 221.219 56.5 220.844 57.875C220.531 59.1875 220.312 60.4375 220.188 61.625C220.062 62.8125 220.156 63.7188 220.469 64.3438C220.781 65.0938 221.125 65.625 221.5 65.9375C221.875 66.1875 222.281 66.3125 222.719 66.3125C223.969 66.3125 225.531 65.625 227.406 64.25C229.344 62.875 231.281 61.25 233.219 59.375C235.219 57.4375 237.062 55.5 238.75 53.5625C240.438 51.5625 241.688 49.9688 242.5 48.7812C243 48.1562 243.5 47.75 244 47.5625C244.562 47.375 245 47.4062 245.312 47.6562C245.688 47.9062 245.875 48.3125 245.875 48.875C245.938 49.4375 245.75 50.0938 245.312 50.8438C244.312 52.5938 242.844 54.6875 240.906 57.125C238.969 59.5 236.906 61.8125 234.719 64.0625C232.531 66.25 230.375 68.125 228.25 69.6875C226.188 71.25 224.5 72.0625 223.188 72.125C222.125 72.1875 221.062 72 220 71.5625C219 71.1875 218.062 70.6562 217.188 69.9688C216.375 69.2188 215.688 68.375 215.125 67.4375C214.562 66.4375 214.25 65.4062 214.188 64.3438C214 62.7812 214 60.6562 214.188 57.9688C214.375 55.2188 214.719 52.4375 215.219 49.625C215.719 46.75 216.344 44.0312 217.094 41.4688C217.906 38.9062 218.812 37 219.812 35.75ZM234.906 70.5312C234.469 71.2188 234 71.6562 233.5 71.8438C232.938 72.0938 232.469 72.125 232.094 71.9375C231.656 71.8125 231.375 71.5 231.25 71C231.125 70.5 231.25 69.875 231.625 69.125C231.812 68.75 232.25 67.9062 232.938 66.5938C233.562 65.2812 234.344 63.7188 235.281 61.9062C236.156 60.0312 237.125 58.0312 238.188 55.9062C239.25 53.7188 240.25 51.6562 241.188 49.7188C242.188 47.7812 243.094 46.0625 243.906 44.5625C244.719 43 245.312 41.875 245.688 41.1875C245 40.5625 244.531 40.125 244.281 39.875C244.031 39.5625 243.844 38.9375 243.719 38C243.594 37.1875 243.781 36.125 244.281 34.8125C244.781 33.5 245.438 32.25 246.25 31.0625C247.062 29.8125 247.969 28.75 248.969 27.875C249.969 27 250.938 26.5625 251.875 26.5625C253.625 26.5625 254.844 27.125 255.531 28.25C256.281 29.375 256.719 30.5312 256.844 31.7188C256.969 32.5312 256.906 33.5625 256.656 34.8125C256.406 36.0625 255.938 37.1875 255.25 38.1875C255.438 38.3125 255.688 38.4688 256 38.6562C256.312 38.7812 256.812 38.8438 257.5 38.8438C258.5 38.8438 259.188 38.7812 259.562 38.6562C260 38.5312 260.656 38.4688 261.531 38.4688C262.594 38.4688 263.469 38.75 264.156 39.3125C264.844 39.8125 265.406 40.4688 265.844 41.2812C266.281 42.0312 266.594 42.875 266.781 43.8125C267.031 44.6875 267.188 45.5 267.25 46.25C267.438 47.8125 267.031 49.4375 266.031 51.125C265.031 52.8125 263.812 54.6562 262.375 56.6562C261.5 57.9062 260.625 59.3125 259.75 60.875C258.875 62.4375 258.5 63.8438 258.625 65.0938C258.75 65.9062 258.969 66.5625 259.281 67.0625C259.594 67.5625 260.469 67.8125 261.906 67.8125C262.969 67.8125 264.125 67.4375 265.375 66.6875C266.688 65.875 268 64.875 269.312 63.6875C270.688 62.4375 272.031 61.0938 273.344 59.6562C274.656 58.1562 275.875 56.7188 277 55.3438C278.125 53.9062 279.062 52.625 279.812 51.5C280.625 50.375 281.219 49.5625 281.594 49.0625C281.906 48.5625 282.312 48.2188 282.812 48.0312C283.312 47.8438 283.75 47.8438 284.125 48.0312C284.5 48.2188 284.719 48.5938 284.781 49.1562C284.906 49.7188 284.688 50.4688 284.125 51.4062C283.75 52.0312 283.094 53.0312 282.156 54.4062C281.281 55.7812 280.188 57.3125 278.875 59C277.625 60.6875 276.219 62.4375 274.656 64.25C273.094 66 271.438 67.625 269.688 69.125C268 70.5625 266.281 71.75 264.531 72.6875C262.844 73.625 261.219 74.0938 259.656 74.0938C258.031 74.0938 256.688 73.7812 255.625 73.1562C254.562 72.5312 253.688 71.7812 253 70.9062C252.375 69.9688 251.906 68.9688 251.594 67.9062C251.344 66.7812 251.25 65.75 251.312 64.8125C251.375 64.0625 251.562 63.2812 251.875 62.4688C252.25 61.5938 252.656 60.7188 253.094 59.8438C253.594 58.9062 254.094 58 254.594 57.125C255.156 56.1875 255.656 55.2812 256.094 54.4062C257.156 52.5938 258 51.0625 258.625 49.8125C259.312 48.5 259.656 47.4062 259.656 46.5312C259.656 45.9688 259.531 45.4688 259.281 45.0312C259.031 44.5938 258.625 44.375 258.062 44.375C257.688 44.375 257.406 44.4062 257.219 44.4688C257.094 44.4688 256.938 44.4688 256.75 44.4688C256.625 44.4688 256.406 44.5 256.094 44.5625C255.844 44.5625 255.438 44.5625 254.875 44.5625C254.062 44.5625 253.375 44.4375 252.812 44.1875C252.25 43.9375 251.719 43.75 251.219 43.625C250.969 44.0625 250.406 45 249.531 46.4375C248.656 47.875 247.625 49.5625 246.438 51.5C245.312 53.4375 244.094 55.4688 242.781 57.5938C241.531 59.7188 240.344 61.7188 239.219 63.5938C238.094 65.4062 237.156 66.9688 236.406 68.2812C235.594 69.5312 235.094 70.2812 234.906 70.5312ZM305.219 56.0938C304.594 58.4688 303.75 60.6875 302.688 62.75C301.625 64.8125 300.344 66.5938 298.844 68.0938C297.406 69.5938 295.75 70.75 293.875 71.5625C292.062 72.4375 290.062 72.875 287.875 72.875C285.312 72.875 283.281 72.3125 281.781 71.1875C280.344 70.125 279.25 68.7812 278.5 67.1562C277.812 65.5312 277.406 63.75 277.281 61.8125C277.094 59.875 277 58.0625 277 56.375C277 55.1875 277.156 53.875 277.469 52.4375C277.719 51 278.094 49.5312 278.594 48.0312C279.094 46.5312 279.719 45.0312 280.469 43.5312C281.281 42.0312 282.219 40.6562 283.281 39.4062C283.656 38.3438 284.219 37.4062 284.969 36.5938C285.781 35.7812 286.688 35.125 287.688 34.625C288.75 34.0625 289.875 33.6562 291.062 33.4062C292.25 33.0938 293.406 32.9375 294.531 32.9375C294.719 32.9375 294.875 32.9688 295 33.0312C295.188 33.0938 295.375 33.1562 295.562 33.2188C296.375 33.2812 297.375 33.5938 298.562 34.1562C299.812 34.7188 301 35.5625 302.125 36.6875C303.312 37.8125 304.312 39.25 305.125 41C305.938 42.6875 306.344 44.75 306.344 47.1875C306.344 47.6875 306.312 48.3125 306.25 49.0625C306.188 49.75 306.125 50.3438 306.062 50.8438C307.5 50.2812 309 49.5938 310.562 48.7812C312.125 47.9688 313.625 47.125 315.062 46.25C316.562 45.3125 317.938 44.375 319.188 43.4375C320.438 42.5 321.438 41.6562 322.188 40.9062C322.812 40.3438 323.344 40.0312 323.781 39.9688C324.219 39.9062 324.531 40.0312 324.719 40.3438C324.906 40.6562 324.938 41.0938 324.812 41.6562C324.688 42.2188 324.344 42.8438 323.781 43.5312C323.469 43.9062 322.656 44.6562 321.344 45.7812C320.094 46.9062 318.594 48.125 316.844 49.4375C315.094 50.75 313.188 52.0312 311.125 53.2812C309.062 54.5312 307.094 55.4688 305.219 56.0938ZM289.375 41.8438C289.188 42.4062 289.094 43 289.094 43.625C289.094 44.625 289.156 45.6875 289.281 46.8125C289.406 47.875 289.719 48.8438 290.219 49.7188C290.719 50.5938 291.5 51.3438 292.562 51.9688C293.688 52.5312 295.219 52.8125 297.156 52.8125C297.469 52.8125 297.781 52.8125 298.094 52.8125C298.406 52.75 298.719 52.6875 299.031 52.625C299.219 51.8125 299.375 51.0938 299.5 50.4688C299.688 49.7812 299.781 49.1875 299.781 48.6875C299.906 47.5 299.906 46.2812 299.781 45.0312C299.656 43.7812 299.406 42.6562 299.031 41.6562C298.719 40.5938 298.281 39.75 297.719 39.125C297.219 38.4375 296.594 38.0938 295.844 38.0938C294.656 38.0938 293.5 38.4375 292.375 39.125C291.312 39.75 290.312 40.6562 289.375 41.8438ZM283.375 58.3438C283.375 59.4688 283.438 60.5938 283.562 61.7188C283.688 62.7812 283.938 63.75 284.312 64.625C284.688 65.4375 285.188 66.125 285.812 66.6875C286.438 67.1875 287.25 67.4375 288.25 67.4375C289.375 67.4375 290.406 67.1875 291.344 66.6875C292.281 66.125 293.125 65.4375 293.875 64.625C294.625 63.75 295.281 62.7812 295.844 61.7188C296.469 60.5938 297 59.4375 297.438 58.25C297 58.3125 296.562 58.375 296.125 58.4375C295.75 58.4375 295.312 58.4375 294.812 58.4375C292.438 58.4375 290.375 57.75 288.625 56.375C286.938 54.9375 285.625 53.125 284.688 50.9375C284.312 52.25 284 53.5312 283.75 54.7812C283.5 56.0312 283.375 57.2188 283.375 58.3438Z" fill="white"/>
</svg>
