<svg width="1920" height="968" viewBox="0 0 1920 968" fill="none" xmlns="http://www.w3.org/2000/svg">
<path d="M141.5 0V47.5C134.167 93.3333 216.8 185 606 185C1092.5 185 1438 161.5 1438 429.5C1438 643.9 693.333 703.167 321 706C261.167 697.5 141.5 738 141.5 968" stroke="#EAEAEA"/>
<path d="M356.435 0V47.5C349.101 93.3333 431.735 185 820.935 185C1307.43 185 1652.93 161.5 1652.93 429.5C1652.93 643.9 908.268 703.167 535.935 706C476.101 697.5 356.435 738 356.435 968" stroke="#EAEAEA"/>
<path d="M559.435 0V47.5C552.101 93.3333 634.735 185 1023.93 185C1510.43 185 1855.93 161.5 1855.93 429.5C1855.93 643.9 1111.27 703.167 738.935 706C679.101 697.5 559.435 738 559.435 968" stroke="#EAEAEA"/>
<path d="M42.4346 0V47.5C35.1013 93.3333 117.735 185 506.935 185C993.435 185 1338.93 161.5 1338.93 429.5C1338.93 643.9 594.268 703.167 221.935 706C162.101 697.5 42.4346 738 42.4346 968" stroke="#EAEAEA"/>
<path d="M-56.5654 0V47.5C-63.8987 93.3333 18.7346 185 407.935 185C894.435 185 1239.93 161.5 1239.93 429.5C1239.93 643.9 495.268 703.167 122.935 706C63.1013 697.5 -56.5654 738 -56.5654 968" stroke="#EAEAEA"/>
<path d="M240.435 0V47.5C233.101 93.3333 315.735 185 704.935 185C1191.43 185 1536.93 161.5 1536.93 429.5C1536.93 643.9 792.268 703.167 419.935 706C360.101 697.5 240.435 738 240.435 968" stroke="#EAEAEA"/>
<path d="M455.369 0V47.5C448.036 93.3333 530.669 185 919.869 185C1406.37 185 1751.87 161.5 1751.87 429.5C1751.87 643.9 1007.2 703.167 634.869 706C575.036 697.5 455.369 738 455.369 968" stroke="#EAEAEA"/>
<path d="M658.369 0V47.5C651.036 93.3333 733.669 185 1122.87 185C1609.37 185 1954.87 161.5 1954.87 429.5C1954.87 643.9 1210.2 703.167 837.869 706C778.036 697.5 658.369 738 658.369 968" stroke="#EAEAEA"/>
<path d="M141.369 0V47.5C134.036 93.3333 216.669 185 605.869 185C1092.37 185 1437.87 161.5 1437.87 429.5C1437.87 643.9 693.202 703.167 320.869 706C261.036 697.5 141.369 738 141.369 968" stroke="#EAEAEA"/>
<path d="M42.3692 0V47.5C35.0359 93.3333 117.669 185 506.869 185C993.369 185 1338.87 161.5 1338.87 429.5C1338.87 643.9 594.202 703.167 221.869 706C162.036 697.5 42.3692 738 42.3692 968" stroke="#EAEAEA"/>
</svg>
